<?xml version="1.0" encoding="utf-8"?>
<!-- Generator: Adobe Illustrator 19.0.0, SVG Export Plug-In . SVG Version: 6.00 Build 0)  -->
<svg version="1.1" id="Layer_1" xmlns="http://www.w3.org/2000/svg" xmlns:xlink="http://www.w3.org/1999/xlink" x="0px" y="0px"
	 viewBox="0 0 416 100" style="enable-background:new 0 0 416 100;" xml:space="preserve">
<style type="text/css">
	.st0{enable-background:new    ;}
</style>
<g class="st0">
	<path d="M22.6,67V35.3H11.4v-5.4H39v5.4H27.9V67H22.6z"/>
	<path d="M48.7,48.1h6.2c4.5,0,6.7-3.2,6.7-6.4c0-3.2-2.2-6.4-6.7-6.4h-8.2v31.5h-5.3V29.9h13.4c8,0,12,5.9,12,11.7
		c0,5.2-3.2,10.2-9.5,11.3L69,66.8h-6.9L48.7,50.6V48.1z"/>
	<path d="M89.5,56H76.2c-1.4,3.4-3.3,7.8-4.4,10.8h-5.7l14.8-37.3h3.9l14.8,37.3h-5.7L89.5,56z M78.2,50.9h9.2l-4.5-13L78.2,50.9z"
		/>
	<path d="M100.1,66.8V29.9l4.1,0.1l18,26v-26h5.3v36.9h-4.2L105.5,41v25.8H100.1z"/>
	<path d="M135.7,35.3c3.2-3.3,7.7-5.5,12.7-5.5c8.4,0,15.1,5.3,17.2,13.6h-5.3c-1.9-5.5-6.5-8.3-11.9-8.3c-3.5,0-6.7,1.5-9.1,3.9
		c-2.3,2.4-3.8,5.7-3.8,9.5c0,3.7,1.5,7,3.8,9.4c2.3,2.4,5.5,3.9,9.1,3.9c5.6,0,10.3-3.2,12.2-8.8h5.2c-2.1,8.4-8.8,14.1-17.4,14.1
		c-5,0-9.5-2.1-12.7-5.5c-3.2-3.4-5.3-8-5.3-13.1C130.4,43.3,132.5,38.6,135.7,35.3z"/>
	<path d="M173.7,61.5h17.1v5.3h-22.5V30h22.4v5.3h-17.1v10.4h16.7v5.4h-16.7V61.5z"/>
	<path d="M200.4,48.1h6.2c4.5,0,6.7-3.2,6.7-6.4c0-3.2-2.2-6.4-6.7-6.4h-8.2v31.5h-5.3V29.9h13.4c8,0,12,5.9,12,11.7
		c0,5.2-3.2,10.2-9.5,11.3l11.6,13.8h-6.9l-13.4-16.2V48.1z"/>
	<path d="M245.7,30h5.7l-14.8,36.9h-3.9L217.9,30h5.8l11,27.5L245.7,30z"/>
	<path d="M269,56h-13.2c-1.4,3.4-3.3,7.8-4.4,10.8h-5.7l14.8-37.3h3.9l14.8,37.3h-5.7L269,56z M257.8,50.9h9.2l-4.5-13L257.8,50.9z"
		/>
	<path d="M284.6,67V35.3h-11.2v-5.4H301v5.4h-11.1V67H284.6z"/>
	<path d="M305.8,35c3.4-3.4,8.1-5.6,13.3-5.6c5.2,0,9.9,2.2,13.3,5.6c3.3,3.4,5.5,8.1,5.5,13.3c0,5.2-2.2,9.9-5.5,13.3
		c-3.4,3.5-8.1,5.6-13.3,5.6c-5.2,0-9.9-2.1-13.3-5.6c-3.3-3.4-5.5-8.1-5.5-13.3C300.3,43.2,302.5,38.5,305.8,35z M328.6,38.8
		c-2.5-2.5-5.9-4-9.5-4s-7,1.5-9.4,4c-2.4,2.4-4,5.8-4,9.5c0,3.7,1.5,7.1,4,9.5c2.4,2.5,5.8,4,9.4,4s7.1-1.5,9.5-4
		c2.4-2.4,3.9-5.7,3.9-9.5C332.5,44.6,331,41.3,328.6,38.8z"/>
	<path d="M348.4,48.1h6.2c4.5,0,6.7-3.2,6.7-6.4c0-3.2-2.2-6.4-6.7-6.4h-8.2v31.5h-5.3V29.9h13.4c8,0,12,5.9,12,11.7
		c0,5.2-3.2,10.2-9.5,11.3l11.6,13.8h-6.9l-13.4-16.2V48.1z"/>
	<path d="M370.6,30l10.1,16.2L390.7,30h6.3l-13.7,21.8v15H378v-15L364.3,30H370.6z"/>
</g>
<g class="st0">
	<path d="M51.2,74.6h1v5.8h0.7v1.3h-0.7v2.1h-1.3v-2.1h-4.6v-0.9L51.2,74.6z M50.9,80.5v-3.6L48,80.5H50.9z"/>
	<path d="M58.9,83.8v-8h-2.8v-1.2H63v1.2h-2.8v8H58.9z"/>
	<path d="M67.9,78.5h3.9v-3.9h1.3v9.2h-1.3v-4h-3.9v4h-1.3v-9.2h1.3V78.5z"/>
	<path d="M87,83.8v-8h-2.8v-1.2h6.9v1.2h-2.8v8H87z"/>
	<path d="M96.5,79.1h1.6c1.1,0,1.7-0.8,1.7-1.6c0-0.8-0.6-1.6-1.7-1.6h-2v7.9h-1.3v-9.2h3.4c2,0,3,1.5,3,2.9c0,1.3-0.8,2.5-2.4,2.8
		l2.9,3.5h-1.7l-3.4-4V79.1z"/>
	<path d="M110.2,81.1h-3.3c-0.4,0.8-0.8,1.9-1.1,2.7h-1.4l3.7-9.3h1l3.7,9.3h-1.4L110.2,81.1z M107.3,79.8h2.3l-1.1-3.2L107.3,79.8z
		"/>
	<path d="M116.1,83.8v-9.2l1,0l4.5,6.5v-6.5h1.3v9.2h-1.1l-4.4-6.4v6.4H116.1z"/>
	<path d="M127.5,75.9c0.8-0.8,1.9-1.4,3.2-1.4c2.1,0,3.8,1.3,4.3,3.4h-1.3c-0.5-1.4-1.6-2.1-3-2.1c-0.9,0-1.7,0.4-2.3,1
		c-0.6,0.6-0.9,1.4-0.9,2.4c0,0.9,0.4,1.7,0.9,2.3c0.6,0.6,1.4,1,2.3,1c1.4,0,2.6-0.8,3.1-2.2h1.3c-0.5,2.1-2.2,3.5-4.4,3.5
		c-1.2,0-2.4-0.5-3.2-1.4c-0.8-0.8-1.3-2-1.3-3.3C126.2,77.9,126.8,76.8,127.5,75.9z"/>
	<path d="M140,82.5h4.3v1.3h-5.6v-9.2h5.6v1.3H140v2.6h4.2v1.3H140V82.5z"/>
	<path d="M156.8,82.5h4.3v1.3h-5.6v-9.2h5.6v1.3h-4.3v2.6h4.2v1.3h-4.2V82.5z"/>
	<path d="M165.8,75.9c0.8-0.8,1.9-1.4,3.2-1.4c2.1,0,3.8,1.3,4.3,3.4H172c-0.5-1.4-1.6-2.1-3-2.1c-0.9,0-1.7,0.4-2.3,1
		c-0.6,0.6-0.9,1.4-0.9,2.4c0,0.9,0.4,1.7,0.9,2.3c0.6,0.6,1.4,1,2.3,1c1.4,0,2.6-0.8,3.1-2.2h1.3c-0.5,2.1-2.2,3.5-4.4,3.5
		c-1.2,0-2.4-0.5-3.2-1.4c-0.8-0.8-1.3-2-1.3-3.3C164.5,77.9,165,76.8,165.8,75.9z"/>
	<path d="M177,81v-6.4h1.3V81c0,1,1.1,1.5,2.1,1.5c1,0,2.1-0.5,2.1-1.5v-6.4h1.3V81c0,1.9-1.8,2.8-3.4,2.8
		C178.8,83.9,177,82.9,177,81z"/>
	<path d="M193.2,81.1h-3.3c-0.4,0.8-0.8,1.9-1.1,2.7h-1.4l3.7-9.3h1l3.7,9.3h-1.4L193.2,81.1z M190.4,79.8h2.3l-1.1-3.2L190.4,79.8z
		"/>
	<path d="M202.6,74.6c3,0,4.5,2.3,4.5,4.6s-1.5,4.6-4.5,4.6h-3.3v-9.2H202.6z M202.6,82.5c2.1,0,3.2-1.6,3.2-3.3
		c0-1.6-1.1-3.3-3.2-3.3h-2v6.5H202.6z"/>
	<path d="M212.3,75.9c0.8-0.9,2-1.4,3.3-1.4c1.3,0,2.5,0.5,3.3,1.4c0.8,0.9,1.4,2,1.4,3.3s-0.5,2.5-1.4,3.3c-0.9,0.9-2,1.4-3.3,1.4
		c-1.3,0-2.5-0.5-3.3-1.4c-0.8-0.9-1.4-2-1.4-3.3S211.5,76.7,212.3,75.9z M218,76.8c-0.6-0.6-1.5-1-2.4-1c-0.9,0-1.7,0.4-2.4,1
		c-0.6,0.6-1,1.4-1,2.4s0.4,1.8,1,2.4c0.6,0.6,1.4,1,2.4,1c0.9,0,1.8-0.4,2.4-1c0.6-0.6,1-1.4,1-2.4S218.6,77.4,218,76.8z"/>
	<path d="M225.9,79.1h1.6c1.1,0,1.7-0.8,1.7-1.6c0-0.8-0.6-1.6-1.7-1.6h-2v7.9h-1.3v-9.2h3.4c2,0,3,1.5,3,2.9c0,1.3-0.8,2.5-2.4,2.8
		l2.9,3.5h-1.7l-3.4-4V79.1z"/>
	<path d="M239,75.9h-1.7v6.6h1.7v1.3h-4.7v-1.3h1.7v-6.6h-1.7v-1.3h4.7V75.9z"/>
	<path d="M248,81.1h-3.3c-0.4,0.8-0.8,1.9-1.1,2.7h-1.4l3.7-9.3h1l3.7,9.3h-1.4L248,81.1z M245.2,79.8h2.3l-1.1-3.2L245.2,79.8z"/>
	<path d="M254,83.8v-9.2l1,0l4.5,6.5v-6.5h1.3v9.2h-1.1l-4.4-6.4v6.4H254z"/>
	<path d="M273.7,83.8h-1.3v-9.2h1.1l3,4.5l3-4.5h1.1v9.2h-1.3v-6.5l-2.4,3.6h-0.7l-2.4-3.6V83.8z"/>
	<path d="M285.9,82.5h4.3v1.3h-5.6v-9.2h5.6v1.3h-4.3v2.6h4.2v1.3h-4.2V82.5z"/>
	<path d="M295.1,82.5h4.3v1.3h-5.6v-9.2h5.6v1.3h-4.3v2.6h4.2v1.3h-4.2V82.5z"/>
	<path d="M305,83.8v-8h-2.8v-1.2h6.9v1.2h-2.8v8H305z"/>
	<path d="M317.3,75.9h-1.7v6.6h1.7v1.3h-4.7v-1.3h1.7v-6.6h-1.7v-1.3h4.7V75.9z"/>
	<path d="M320.9,83.8v-9.2l1,0l4.5,6.5v-6.5h1.3v9.2h-1.1l-4.4-6.4v6.4H320.9z"/>
	<path d="M338.8,77.9c-0.4-1.5-1.8-2-3-2c-1.8,0-3.2,1.4-3.2,3.3c0,1.9,1.4,3.4,3.2,3.4c1.1,0,2.3-0.5,2.9-1.9h-3.4v-1.3h5
		c-0.1,0.8-0.1,1.3-0.3,1.6v0c-0.6,1.8-2.5,2.9-4.2,2.9c-2.6,0-4.5-1.9-4.5-4.7c0-2.7,2-4.7,4.5-4.7c1.8,0,3.9,0.9,4.4,3.4H338.8z"
		/>
</g>
<g class="st0">
	<path d="M126,12.8V4.7h-2.8V3.4h7v1.3h-2.8v8.1H126z"/>
	<path d="M132.6,8h1.6c1.1,0,1.7-0.8,1.7-1.6c0-0.8-0.6-1.6-1.7-1.6h-2.1v8h-1.3V3.4h3.4c2,0,3,1.5,3,3c0,1.3-0.8,2.6-2.4,2.9l3,3.5
		H136l-3.4-4.1V8z"/>
	<path d="M143.5,10h-3.4c-0.4,0.9-0.8,2-1.1,2.8h-1.5l3.8-9.5h1l3.8,9.5h-1.4L143.5,10z M140.6,8.7h2.3l-1.1-3.3L140.6,8.7z"/>
	<path d="M146.5,12.8V3.4l1,0l4.6,6.6V3.4h1.3v9.4h-1.1l-4.5-6.5v6.5H146.5z"/>
	<path d="M155.1,4.7c0.8-0.8,2-1.4,3.2-1.4c2.1,0,3.8,1.3,4.4,3.4h-1.3c-0.5-1.4-1.6-2.1-3-2.1c-0.9,0-1.7,0.4-2.3,1
		c-0.6,0.6-1,1.4-1,2.4c0,0.9,0.4,1.8,1,2.4c0.6,0.6,1.4,1,2.3,1c1.4,0,2.6-0.8,3.1-2.2h1.3c-0.5,2.1-2.2,3.6-4.4,3.6
		c-1.3,0-2.4-0.5-3.2-1.4c-0.8-0.9-1.3-2-1.3-3.3C153.7,6.8,154.3,5.6,155.1,4.7z"/>
	<path d="M164.7,11.4h4.3v1.3h-5.7V3.4h5.7v1.4h-4.3v2.6h4.2v1.4h-4.2V11.4z"/>
	<path d="M170.9,12.8h-1.4V3.4h5.6v1.4h-4.2v2.6h3.7v1.4h-3.7V12.8z"/>
	<path d="M180.2,10h-3.4c-0.4,0.9-0.8,2-1.1,2.8h-1.5l3.8-9.5h1l3.8,9.5h-1.4L180.2,10z M177.4,8.7h2.3l-1.1-3.3L177.4,8.7z"/>
	<path d="M184.6,12.8h-1.4V3.4h1.1l3.1,4.5l3.1-4.5h1.1v9.4h-1.3V6.2l-2.4,3.6h-0.8l-2.4-3.6V12.8z"/>
	<path d="M197.6,4.7h-1.7v6.7h1.7v1.3h-4.8v-1.3h1.7V4.7h-1.7V3.4h4.8V4.7z"/>
	<path d="M199.7,11.4h4.4v1.3h-5.7V3.4h1.4V11.4z"/>
	<path d="M203.7,3.4l2.6,4.1l2.6-4.1h1.6l-3.5,5.5v3.8h-1.4V8.9l-3.5-5.5H203.7z"/>
</g>
<g class="st0">
	<path d="M212.1,12.6h5v0.2H212h0V3.4h5.2v0.2h-4.9V8h4.8v0.2h-4.8V12.6z"/>
	<path d="M226.4,6.3c-0.2-0.5-0.5-0.9-0.9-1.3c-0.8-0.8-1.9-1.3-3.1-1.3c-1.2,0-2.3,0.5-3.1,1.3c-0.8,0.8-1.3,1.9-1.3,3.1
		c0,1.2,0.5,2.3,1.3,3.1c0.8,0.8,1.9,1.3,3.1,1.3c1.2,0,2.3-0.5,3.1-1.3c0.4-0.4,0.7-0.8,0.9-1.3h0.2c-0.2,0.5-0.6,1-1,1.5
		c-0.8,0.9-2,1.4-3.2,1.4c-1.3,0-2.4-0.5-3.2-1.4c-0.8-0.8-1.3-2-1.3-3.3c0-1.3,0.5-2.4,1.3-3.3c0.8-0.9,2-1.4,3.2-1.4
		c1.3,0,2.4,0.5,3.2,1.4c0.4,0.4,0.7,0.9,1,1.5H226.4z"/>
	<path d="M227.6,10.2V3.4h0.2v6.8c0,1.6,1.6,2.4,3.1,2.4c1.4,0,3.1-0.8,3.1-2.4V3.4h0.2v6.8c0,1.7-1.7,2.6-3.3,2.6
		C229.3,12.9,227.6,12,227.6,10.2z"/>
	<path d="M240.9,9.6h-4.7l-1.3,3.1h-0.2l3.8-9.5h0.2l3.8,9.5h-0.2L240.9,9.6z M236.3,9.4h4.6l-2.3-5.9L236.3,9.4z"/>
	<path d="M246.3,3.4c6.1,0,6.1,9.3,0,9.3h-3.2c0-3.1,0-6.2,0-9.3H246.3z M246.3,12.6c5.9,0,5.9-8.9,0-8.9h-3c0,2.9,0,6,0,8.9H246.3z
		"/>
	<path d="M253,4.7c0.9-0.9,2.1-1.4,3.4-1.4c1.3,0,2.5,0.5,3.4,1.4c0.9,0.9,1.4,2.1,1.4,3.4s-0.5,2.5-1.4,3.4
		c-0.9,0.9-2.1,1.4-3.4,1.4c-1.3,0-2.5-0.5-3.4-1.4c-0.9-0.9-1.4-2.1-1.4-3.4S252.1,5.6,253,4.7z M259.6,4.9c-0.8-0.8-2-1.4-3.2-1.4
		c-1.3,0-2.4,0.5-3.2,1.4c-0.8,0.8-1.3,2-1.3,3.2c0,1.3,0.5,2.4,1.3,3.2c0.8,0.8,2,1.4,3.2,1.4c1.3,0,2.4-0.5,3.2-1.4
		c0.8-0.8,1.3-2,1.3-3.2C260.9,6.8,260.4,5.7,259.6,4.9z"/>
	<path d="M262.3,12.8h-0.2V3.5V3.4h0.1h3.1c3.7,0,3.7,5.5,0,5.5h-1.5l4.3,3.9h-0.3l-4.3-3.9V8.7h1.8c3.5,0,3.5-5.1,0-5.1h-3V12.8z"
		/>
</g>
<g class="st0">
	<path d="M191,18.2c1.3,0,2,1,2,2.1c0,1-0.7,2.1-2,2.1h-1.4v2.1h-0.9v-6.2H191z M191,21.5c0.8,0,1.1-0.6,1.1-1.2
		c0-0.6-0.4-1.2-1.1-1.2h-1.4v2.4H191z"/>
	<path d="M195,21.3h1.1c0.8,0,1.1-0.5,1.1-1.1c0-0.5-0.4-1.1-1.1-1.1h-1.4v5.3h-0.9v-6.2h2.3c1.4,0,2,1,2,2c0,0.9-0.5,1.7-1.6,1.9
		l2,2.3h-1.2l-2.3-2.7V21.3z"/>
	<path d="M199.4,23.5h2.9v0.9h-3.8v-6.2h3.8v0.9h-2.9v1.8h2.8v0.9h-2.8V23.5z"/>
	<path d="M206.1,19.8c-0.1-0.6-0.7-0.8-1.3-0.8c-0.4,0-0.9,0.2-1.1,0.5c-0.1,0.2-0.2,0.4-0.2,0.6c0,0.6,0.7,0.7,1.4,0.8
		c0.9,0.1,1.9,0.3,2.2,1.3c0,0.1,0,0.3,0,0.4c0,1.2-1.2,1.9-2.3,1.9c-1,0-2.1-0.6-2.2-1.7l0-0.2l0.9,0l0,0.1v0
		c0.1,0.6,0.8,0.9,1.3,0.9c0.7,0,1.4-0.4,1.4-1c0-0.1,0-0.1,0-0.2c-0.1-0.5-0.7-0.6-1.4-0.6c-1-0.1-2.1-0.3-2.2-1.6v0
		c0-0.4,0.1-0.8,0.3-1.2c0.4-0.5,1.2-0.8,1.9-0.8c1,0,2,0.5,2.1,1.6L206.1,19.8z"/>
	<path d="M208.5,23.5h2.9v0.9h-3.8v-6.2h3.8v0.9h-2.9v1.8h2.8v0.9h-2.8V23.5z"/>
	<path d="M211.8,24.4v-6.2l0.7,0l3,4.4v-4.4h0.9v6.2h-0.7l-3-4.4v4.4H211.8z"/>
	<path d="M217.9,24.5V19H216v-0.8h4.7V19h-1.9v5.4H217.9z"/>
	<path d="M223.7,22.6h-2.2c-0.2,0.6-0.6,1.3-0.7,1.8h-1l2.5-6.3h0.7l2.5,6.3h-1L223.7,22.6z M221.8,21.7h1.5l-0.8-2.2L221.8,21.7z"
		/>
</g>
</svg>
